<?xml version="1.0" encoding="utf-8"?>
<!-- Generator: Adobe Illustrator 27.9.0, SVG Export Plug-In . SVG Version: 6.00 Build 0)  -->
<svg version="1.1" id="Layer_1" xmlns="http://www.w3.org/2000/svg" xmlns:xlink="http://www.w3.org/1999/xlink" x="0px" y="0px"
	 viewBox="0 0 1366 768" style="enable-background:new 0 0 1366 768;" xml:space="preserve">
<style type="text/css">
	.st0{fill-rule:evenodd;clip-rule:evenodd;fill:#3782AE;}
	.st1{fill-rule:evenodd;clip-rule:evenodd;}
	.st2{font-family:'Georgia';}
	.st3{font-size:48px;}
	.st4{fill:#3782AE;}
	.st5{font-family:'HelveticaNeue-CondensedBlack';}
	.st6{font-size:36px;}
</style>
<path class="st0" d="M470.59,288.59L621.87,126.7l43.54,46.65l-22.96,25.33l-20.58-21.72L518.25,288.59H470.59z"/>
<path class="st1" d="M802.76,443.88H581.95V288.59L734.12,126.7l104.46,111v-36.32h34.5v87.21h-34.5L734.12,176.96L616.8,302.67
	V409.6h185.96V443.88z"/>
<path class="st0" d="M709.65,302.67v21.27h21.28v-21.27H709.65z"/>
<path class="st0" d="M737.25,302.67v21.27h21.28v-21.27H737.25z"/>
<path class="st0" d="M709.65,330.03v21.27h21.28v-21.27H709.65z"/>
<path class="st0" d="M737.25,330.03v21.27h21.28v-21.27H737.25z"/>
<text transform="matrix(1 0 0 1 457.0081 503.6446)"><tspan x="0" y="0" class="st2 st3">POWELL’S WINDOW </tspan><tspan x="67.01" y="52" class="st2 st3">CLEANING LLC</tspan></text>
<text transform="matrix(1 0 0 1 589.5981 609.4669)" class="st4 st5 st6">(904) 303 8517</text>
</svg>
